<svg xmlns="http://www.w3.org/2000/svg" class="icon icon-tabler icon-tabler-coffee" width="250px" height="250px" viewBox="0 0 24 24" stroke-width="1.82" stroke="rgba(117, 81, 57, 1)" fill="none" stroke-linecap="round" stroke-linejoin="round"><rect x="0" y="0" width="100%" height="100%" stroke="none" stroke-width="0" fill="rgba(242, 237, 215, 1)"/><g transform="translate(2.40, 2.40) scale(0.8)"><path stroke="none" d="M0 0h24v24H0z" fill="none"/><path d="M3 14c.83 .642 2.077 1.017 3.5 1c1.423 .017 2.67 -.358 3.5 -1c.83 -.642 2.077 -1.017 3.5 -1c1.423 -.017 2.67 .358 3.5 1"/><path d="M8 3a2.4 2.4 0 0 0 -1 2a2.4 2.4 0 0 0 1 2"/><path d="M12 3a2.4 2.4 0 0 0 -1 2a2.4 2.4 0 0 0 1 2"/><path d="M3 10h14v5a6 6 0 0 1 -6 6h-2a6 6 0 0 1 -6 -6v-5z"/><path d="M16.746 16.726a3 3 0 1 0 .252 -5.555"/></g>
  
  
  
  
  
  
</svg>